<?xml version="1.0" encoding="utf-8"?>
<!-- Generator: Adobe Illustrator 16.0.0, SVG Export Plug-In . SVG Version: 6.00 Build 0)  -->
<!DOCTYPE svg PUBLIC "-//W3C//DTD SVG 1.1//EN" "http://www.w3.org/Graphics/SVG/1.1/DTD/svg11.dtd">
<svg version="1.1" id="Artwork" xmlns="http://www.w3.org/2000/svg" xmlns:xlink="http://www.w3.org/1999/xlink" x="0px" y="0px"
	 width="512px" height="512px" viewBox="0 0 512 512" enable-background="new 0 0 512 512" xml:space="preserve">
<g>
	<path d="M274.696,351.895c11.283,0,105.451-116.968,105.451-175.209c0-58.239-47.213-105.452-105.451-105.452
		c-58.242,0-105.453,47.213-105.453,105.452C169.243,234.927,263.821,351.895,274.696,351.895z M206.581,172.993
		c0-37.618,30.494-68.113,68.115-68.113c37.617,0,68.113,30.495,68.113,68.113s-30.496,68.114-68.113,68.114
		C237.075,241.107,206.581,210.611,206.581,172.993z"/>
	<path d="M461.979,271.3c0-9.713-7.9-17.614-17.613-17.614c0,0-47.016,0-64.223,0c-1.339,0-2.883-0.072-4.58,2.777
		c-3.389,5.688-3.091,5.188-6.273,10.452c-1.48,2.449,0.759,3.28,1.681,3.28c20.565,0,73.396,0,73.396,0
		c0.588,0,1.104,0.517,1.104,1.104l16.52,144.726c0,0.588-0.516,1.105-1.105,1.105H88.507c-0.592,0-1.105-0.518-1.105-1.105
		L103.919,271.3c0-0.588,0.516-1.104,1.105-1.104c0,0,54.619,0,72.826,0c1.5,0,3.875-0.873,1.174-5.269
		c-3.169-5.157-1.941-3.646-5.299-9.354c-1.25-2.125-2.983-1.887-5.328-1.887c-15.844,0-63.373,0-63.373,0
		c-9.709,0-17.613,7.901-17.613,17.614l-16.52,144.726c0,9.713,7.902,17.614,17.615,17.614h372.377
		c9.715,0,17.613-7.901,17.613-17.614L461.979,271.3z"/>
</g>
</svg>
